<svg xmlns="http://www.w3.org/2000/svg" id="Layer_1" height="100%" aria-label="Humyn" data-name="Layer 1" viewBox="0 0 258.72 46.57"><defs><style>.cls-1{fill:#22d16b}</style></defs><path d="M75.34 9.81v8.51c5.16-2.13 12.52-.24 12.52 6.59v13.87h-4.61V24.87c0-3.72-5.42-3.85-7.91-2.33v16.24h-4.66v-29ZM114.22 37.43C107 40.46 97 40.18 97 31.83V17.59h4.66v14.32c.17 3.52 5.16 4.09 7.91 2.66v-17h4.61ZM123.61 19.71c3.77-2.57 11.22-3.6 13.84.7 3.34-4.83 14.13-3.44 14.13 4.17v14.2H147v-14c.25-3.85-7.19-3.44-7.19-.17v14.2h-4.57V24.5c0-3-4.49-3.56-7-2v16.28h-4.57ZM178 17.59v21.19c0 9.42-13.37 9.79-17.31 3.85l2.79-2.58c2.63 3.36 10.54 3.73 10.07-1.67-5.41 2.16-13.07-.37-13.07-6.59v-14.2h4.65v14.24c.22 3.48 5.89 3.84 8.26 2.21V17.59ZM187.12 19c6.22-3 17.14-2.54 17.14 5.81v14h-4.61v-14c-.21-3.6-5.5-4-7.87-2.62v16.59h-4.66ZM216.23 33.06a3 3 0 1 1-3 3 3 3 0 0 1 3-3ZM230.32 23.07l-2.7-2.41a10.36 10.36 0 0 1 7.95-3.36c4.28 0 8.63 2.21 8.63 7v13.58c-6.56 2.34-17.2 2.83-17.2-6.18 0-6.67 7.75-8 12.57-6v-1.28c-.74-3.89-6.57-4.13-9.25-1.35Zm9.23 6.51c-2.33-1.07-7.79-1.43-8 2.12-.25 4.3 4.74 4.18 8 3.32ZM255.75 9.77a2.87 2.87 0 1 1 0 5.73 2.87 2.87 0 1 1 0-5.73Zm-2.24 7.78v21.23h4.66V17.55Z" class="cls-1"/><circle cx="7.51" cy="6.55" r="6.55" class="cls-1"/><circle cx="5.07" cy="35.06" r="5.07" class="cls-1"/><circle cx="31.58" cy="34.79" r="6.19" class="cls-1"/><circle cx="31.81" cy="8.08" r="4.66" class="cls-1"/><circle cx="11.05" cy="21.01" r="2.24" class="cls-1"/><circle cx="26.97" cy="21.01" r="2.24" class="cls-1"/><path d="m5.86 35.32-1.61-.7 5.88-13.69L6.3 5.34 8 4.92l3.98 16.17-6.12 14.23zM30.82 35.06l-4.81-14.15 4.94-12.83 1.51.89-4.53 12.14 4.55 13.38-1.66.57z" class="cls-1"/><path d="m18.81 24.01-7.98-2.15.45-1.7 7.54 2.03 7.93-2.03.44 1.7-8.38 2.15z" class="cls-1"/></svg>